#N canvas 625 340 421 426 10;
#X obj 50 108 bng 15 250 50 0 empty empty empty 17 7 0 10 -262144 -1
-1;
#X floatatom 50 182 20 0 0 0 - - -, f 20;
#X obj 23 68 tgl 15 0 empty empty empty 17 7 0 10 -262144 -1 -1 1 1
;
#X obj 23 268 metro;
#X obj 23 296 bng 15 250 50 0 empty empty empty 17 7 0 10 -262144 -1
-1;
#X text 358 394 rg '17;
#X obj 23 319 f;
#X obj 48 318 + 1;
#X floatatom 23 363 5 0 0 0 - - -, f 5;
#X obj 23 340 % 2;
#X obj 93 110 loadbang;
#X obj 23 382 s seq1;
#X obj 50 148 fibo;
#X obj 117 351 osc~ 40;
#X obj 117 316 sel 0 1;
#X obj 117 368 *~ 1;
#X obj 117 299 r seq1;
#X msg 117 334 40;
#X obj 117 385 dac~ 1 2;
#X msg 150 334 0;
#X msg 164 131 backward;
#X msg 234 131 forward;
#X msg 294 131 clear;
#X obj 50 206 moses 1;
#X text 15 12 [fibo] v.1 (2017) generates a fibonacci sequence through
recursion for a list of n numbers. useful for driving metros to create
rhythms.;
#X obj 236 377 noteout 2;
#X obj 236 301 r seq1;
#X obj 236 318 sel 0 1;
#X msg 236 336 40;
#X msg 269 336 0;
#X msg 93 131 10;
#X text 287 301 to MF 2 (hardware);
#X obj 236 360 makenote 127 50;
#X obj 50 83 metro 200;
#X obj 89 251 + 100;
#X connect 0 0 12 0;
#X connect 1 0 23 0;
#X connect 2 0 3 0;
#X connect 2 0 33 0;
#X connect 3 0 4 0;
#X connect 4 0 6 0;
#X connect 6 0 7 0;
#X connect 6 0 9 0;
#X connect 7 0 6 1;
#X connect 8 0 11 0;
#X connect 9 0 8 0;
#X connect 10 0 30 0;
#X connect 12 0 1 0;
#X connect 13 0 15 0;
#X connect 14 0 17 0;
#X connect 14 1 19 0;
#X connect 15 0 18 0;
#X connect 15 0 18 1;
#X connect 16 0 14 0;
#X connect 17 0 13 0;
#X connect 19 0 13 0;
#X connect 20 0 12 0;
#X connect 21 0 12 0;
#X connect 22 0 12 0;
#X connect 23 1 34 0;
#X connect 26 0 27 0;
#X connect 27 0 28 0;
#X connect 27 1 29 0;
#X connect 28 0 32 0;
#X connect 29 0 32 0;
#X connect 30 0 12 1;
#X connect 32 0 25 0;
#X connect 32 1 25 1;
#X connect 33 0 0 0;
#X connect 34 0 3 1;
